<svg xmlns="http://www.w3.org/2000/svg" xmlns:xlink="http://www.w3.org/1999/xlink" width="500" zoomAndPan="magnify" viewBox="0 0 375 374.999991" height="500" preserveAspectRatio="xMidYMid meet" version="1.0"><defs><g/><clipPath id="dd95641a9d"><path d="M 28.191406 24.152344 L 346.9375 24.152344 L 346.9375 337.652344 L 28.191406 337.652344 Z M 28.191406 24.152344 " clip-rule="nonzero"/></clipPath><clipPath id="726a84f6d6"><path d="M 187.5 24.152344 C 99.515625 24.152344 28.191406 94.296875 28.191406 180.820312 C 28.191406 267.347656 99.515625 337.488281 187.5 337.488281 C 275.480469 337.488281 346.804688 267.347656 346.804688 180.820312 C 346.804688 94.296875 275.480469 24.152344 187.5 24.152344 Z M 187.5 24.152344 " clip-rule="nonzero"/></clipPath><clipPath id="6c1dd03645"><path d="M 44.40625 44.429688 L 329.40625 44.429688 L 329.40625 321.179688 L 44.40625 321.179688 Z M 44.40625 44.429688 " clip-rule="nonzero"/></clipPath><clipPath id="fcafe28fa2"><path d="M 187 44.429688 C 108.25 44.429688 44.40625 106.390625 44.40625 182.824219 C 44.40625 259.253906 108.25 321.214844 187 321.214844 C 265.753906 321.214844 329.59375 259.253906 329.59375 182.824219 C 329.59375 106.390625 265.753906 44.429688 187 44.429688 Z M 187 44.429688 " clip-rule="nonzero"/></clipPath></defs><rect x="-37.5" width="450" fill="#ffffff" y="-37.499999" height="449.999989" fill-opacity="1"/><rect x="-37.5" width="450" fill="#f4f4f4" y="-37.499999" height="449.999989" fill-opacity="1"/><g clip-path="url(#dd95641a9d)"><g clip-path="url(#726a84f6d6)"><path stroke-linecap="butt" transform="matrix(0.75, 0, 0, 0.75, 28.193133, 24.154122)" fill="none" stroke-linejoin="miter" d="M 212.40917 -0.00237081 C 95.096663 -0.00237081 -0.00230187 93.523677 -0.00230187 208.888268 C -0.00230187 324.258067 95.096663 417.778907 212.40917 417.778907 C 329.71647 417.778907 424.815434 324.258067 424.815434 208.888268 C 424.815434 93.523677 329.71647 -0.00237081 212.40917 -0.00237081 Z M 212.40917 -0.00237081 " stroke="#000000" stroke-width="1.6" stroke-opacity="1" stroke-miterlimit="4"/></g></g><g clip-path="url(#6c1dd03645)"><g clip-path="url(#fcafe28fa2)"><path stroke-linecap="butt" transform="matrix(0.75, 0, 0, 0.75, 44.407883, 44.431557)" fill="none" stroke-linejoin="miter" d="M 190.122823 -0.00249278 C 85.122823 -0.00249278 -0.00217758 82.612091 -0.00217758 184.523549 C -0.00217758 286.429799 85.122823 369.044383 190.122823 369.044383 C 295.128031 369.044383 380.247823 286.429799 380.247823 184.523549 C 380.247823 82.612091 295.128031 -0.00249278 190.122823 -0.00249278 Z M 190.122823 -0.00249278 " stroke="#000000" stroke-width="2.4" stroke-opacity="1" stroke-miterlimit="4"/></g></g><path fill="#000000" d="M 242.105469 181.945312 C 255.203125 166.390625 256.171875 147.855469 245.613281 139.027344 C 235.054688 130.199219 216.90625 134.367188 203.808594 149.921875 C 196.828125 158.210938 192.984375 167.714844 192.507812 176.125 L 192.210938 176.09375 C 192.195312 176.230469 190.761719 190.035156 188.835938 195.875 C 187.335938 200.433594 184.585938 205.414062 183.441406 207.394531 L 182.765625 206.828125 L 159.066406 234.972656 L 156.777344 235.378906 L 154.753906 237.785156 L 163.988281 245.503906 L 166.167969 242.914062 L 165.9375 240.316406 L 189.4375 212.40625 L 188.890625 211.949219 C 190.648438 210.484375 195.097656 206.925781 199.335938 204.65625 C 204.769531 201.75 218.164062 197.945312 218.300781 197.910156 L 218.207031 197.570312 C 226.421875 195.644531 235.136719 190.222656 242.105469 181.945312 Z M 206.421875 152.105469 C 206.855469 151.59375 207.300781 151.128906 207.742188 150.640625 L 209.5 152.109375 L 205.726562 156.59375 L 204.039062 155.183594 C 204.789062 154.144531 205.574219 153.113281 206.421875 152.105469 Z M 206.792969 157.488281 L 210.566406 153.003906 L 215.0625 156.765625 L 211.289062 161.246094 Z M 210.390625 162.3125 L 206.617188 166.796875 L 202.121094 163.035156 L 205.894531 158.554688 Z M 211.464844 151.941406 L 215.238281 147.457031 L 219.734375 151.21875 L 215.960938 155.699219 Z M 216.136719 146.390625 L 219.910156 141.910156 L 224.40625 145.667969 L 220.632812 150.152344 Z M 220.808594 140.84375 L 221.074219 140.527344 C 223.140625 139.566406 225.199219 138.886719 227.222656 138.4375 L 229.144531 140.042969 L 225.304688 144.601562 Z M 214.167969 146.566406 L 210.394531 151.046875 L 208.671875 149.605469 C 210.085938 148.136719 211.546875 146.816406 213.03125 145.617188 Z M 214.160156 144.742188 C 215.34375 143.847656 216.539062 143.039062 217.746094 142.316406 L 215.066406 145.5 Z M 204.828125 157.660156 L 201.050781 162.144531 L 200.207031 161.4375 C 201.089844 159.71875 202.105469 158.015625 203.246094 156.335938 Z M 200.152344 163.207031 L 198.480469 165.191406 C 198.8125 164.367188 199.167969 163.542969 199.5625 162.714844 Z M 201.222656 164.101562 L 205.71875 167.863281 L 201.941406 172.34375 L 197.445312 168.585938 Z M 230.871094 160.53125 L 227.097656 165.011719 L 222.597656 161.25 L 226.371094 156.769531 Z M 227.269531 155.699219 L 231.042969 151.21875 L 235.542969 154.980469 L 231.769531 159.464844 Z M 226.203125 166.078125 L 222.429688 170.558594 L 217.925781 166.796875 L 221.699219 162.3125 Z M 221.53125 171.625 L 217.753906 176.109375 L 213.253906 172.34375 L 217.027344 167.863281 Z M 216.855469 177.175781 L 213.082031 181.660156 L 208.582031 177.894531 L 212.355469 173.410156 Z M 212.1875 182.722656 L 208.464844 187.140625 L 203.964844 183.375 L 207.6875 178.957031 Z M 236.441406 153.914062 L 231.941406 150.152344 L 235.78125 145.59375 L 240.28125 149.355469 Z M 229.972656 150.324219 L 226.199219 154.804688 L 221.703125 151.046875 L 225.476562 146.566406 Z M 226.375 145.5 L 230.214844 140.9375 L 234.710938 144.699219 L 230.871094 149.257812 Z M 225.300781 155.871094 L 221.527344 160.355469 L 217.03125 156.59375 L 220.804688 152.113281 Z M 220.628906 161.417969 L 216.855469 165.898438 L 212.359375 162.140625 L 216.132812 157.660156 Z M 215.957031 166.964844 L 212.183594 171.449219 L 207.6875 167.691406 L 211.460938 163.207031 Z M 211.285156 172.515625 L 207.507812 177 L 203.015625 173.242188 L 206.789062 168.757812 Z M 206.613281 178.0625 L 202.894531 182.480469 L 198.398438 178.722656 L 202.121094 174.304688 Z M 231.109375 139.875 L 232.816406 137.847656 C 235.136719 137.902344 237.335938 138.347656 239.351562 139.1875 L 235.605469 143.632812 Z M 201.996094 183.546875 L 198.332031 187.898438 C 197.199219 186.011719 196.453125 183.839844 196.085938 181.46875 L 197.5 179.789062 Z M 203.066406 184.441406 L 207.566406 188.207031 L 203.542969 192.984375 C 202.792969 192.5625 202.070312 192.09375 201.398438 191.535156 C 200.539062 190.816406 199.8125 189.980469 199.152344 189.089844 Z M 214.148438 182.550781 L 217.925781 178.066406 L 222.425781 181.832031 L 218.648438 186.3125 Z M 217.753906 187.375 L 214.03125 191.796875 L 209.53125 188.03125 L 213.253906 183.613281 Z M 218.820312 177.003906 L 222.597656 172.519531 L 227.097656 176.28125 L 223.320312 180.765625 Z M 223.496094 171.453125 L 227.269531 166.972656 L 231.769531 170.734375 L 227.996094 175.214844 Z M 228.164062 165.90625 L 231.9375 161.425781 L 236.4375 165.1875 L 232.664062 169.667969 Z M 232.835938 160.359375 L 236.613281 155.875 L 241.113281 159.636719 L 237.335938 164.121094 Z M 237.507812 154.808594 L 241.347656 150.25 L 245.847656 154.011719 L 242.007812 158.570312 Z M 213.132812 192.863281 L 211.339844 194.996094 C 209 194.941406 206.804688 194.496094 204.824219 193.625 L 208.632812 189.097656 Z M 242.246094 149.183594 L 246.121094 144.582031 C 247.363281 146.328125 248.257812 148.324219 248.800781 150.507812 L 246.746094 152.945312 Z M 248.742188 161.839844 L 247.574219 163.226562 L 243.078125 159.464844 L 246.917969 154.90625 L 249.390625 156.972656 C 249.320312 158.550781 249.105469 160.175781 248.742188 161.839844 Z M 245.425781 170.882812 L 243.976562 169.667969 L 247.75 165.1875 L 247.808594 165.238281 C 247.191406 167.105469 246.402344 168.992188 245.425781 170.882812 Z M 239.492188 179.757812 C 238.640625 180.765625 237.761719 181.714844 236.863281 182.628906 L 234.632812 180.765625 L 238.40625 176.28125 L 240.710938 178.210938 C 240.308594 178.726562 239.921875 179.246094 239.492188 179.757812 Z M 242.003906 169.839844 L 238.230469 174.320312 L 233.734375 170.5625 L 237.507812 166.082031 Z M 238.40625 165.015625 L 242.183594 160.53125 L 246.679688 164.292969 L 242.902344 168.773438 Z M 237.335938 175.386719 L 233.5625 179.867188 L 229.066406 176.109375 L 232.839844 171.628906 Z M 232.664062 180.933594 L 228.886719 185.417969 L 224.390625 181.660156 L 228.167969 177.175781 Z M 227.992188 186.484375 L 224.214844 190.96875 L 219.71875 187.207031 L 223.496094 182.722656 Z M 229.960938 186.3125 L 233.734375 181.832031 L 235.863281 183.609375 C 234.402344 185.023438 232.894531 186.3125 231.351562 187.476562 Z M 230.199219 188.332031 C 228.851562 189.285156 227.484375 190.128906 226.109375 190.886719 L 229.0625 187.378906 Z M 239.304688 175.21875 L 243.078125 170.738281 L 244.757812 172.144531 C 243.828125 173.808594 242.78125 175.472656 241.570312 177.113281 Z M 218.824219 188.269531 L 223.320312 192.03125 L 222.980469 192.433594 C 221.015625 193.292969 219.054688 193.960938 217.136719 194.390625 L 215.105469 192.6875 Z M 249.417969 155.179688 L 247.816406 153.839844 L 249.144531 152.261719 C 249.292969 153.210938 249.390625 154.179688 249.417969 155.179688 Z M 245.242188 143.464844 L 241.179688 148.292969 L 236.675781 144.527344 L 240.644531 139.816406 C 241.617188 140.332031 242.558594 140.914062 243.417969 141.636719 C 244.085938 142.195312 244.683594 142.816406 245.242188 143.464844 Z M 230.96875 137.875 L 230.039062 138.976562 L 228.988281 138.097656 C 229.65625 138 230.316406 137.914062 230.96875 137.875 Z M 196.90625 169.945312 L 201.050781 173.40625 L 197.328125 177.828125 L 195.84375 176.585938 C 195.941406 174.449219 196.3125 172.21875 196.90625 169.945312 Z M 195.835938 178.394531 L 196.429688 178.890625 L 195.863281 179.5625 C 195.839844 179.183594 195.84375 178.785156 195.835938 178.394531 Z M 197.726562 201.660156 C 192.71875 204.332031 187.648438 208.519531 186.230469 209.722656 L 186.101562 209.617188 C 187.046875 208.015625 190.304688 202.3125 192.078125 196.9375 C 192.898438 194.457031 193.613281 190.765625 194.191406 187.195312 C 195.300781 189.90625 196.96875 192.273438 199.203125 194.140625 C 201.464844 196.03125 204.121094 197.257812 207.03125 197.878906 C 203.589844 199.0625 200.042969 200.417969 197.726562 201.660156 Z M 213.203125 194.945312 L 214.207031 193.757812 L 215.351562 194.710938 C 214.625 194.824219 213.910156 194.902344 213.203125 194.945312 Z M 213.203125 194.945312 " fill-opacity="1" fill-rule="nonzero"/><path fill="#000000" d="M 165.949219 151.011719 C 152.851562 135.457031 134.703125 131.285156 124.144531 140.117188 C 113.585938 148.945312 114.554688 167.480469 127.652344 183.03125 C 134.632812 191.324219 143.355469 196.746094 151.585938 198.671875 L 151.5 198.957031 C 151.636719 198.996094 165.027344 202.804688 170.464844 205.707031 C 174.710938 207.972656 179.152344 211.535156 180.914062 213 L 180.234375 213.5625 L 203.9375 241.710938 L 203.941406 244.027344 L 205.964844 246.429688 L 215.199219 238.710938 L 213.019531 236.117188 L 210.410156 235.894531 L 186.910156 207.984375 L 186.359375 208.445312 C 185.214844 206.464844 182.472656 201.480469 180.96875 196.925781 C 179.039062 191.089844 177.605469 177.285156 177.59375 177.140625 L 177.242188 177.179688 C 176.765625 168.78125 172.917969 159.289062 165.949219 151.011719 Z M 130.265625 180.847656 C 129.832031 180.335938 129.449219 179.816406 129.046875 179.300781 L 130.800781 177.828125 L 134.574219 182.3125 L 132.890625 183.71875 C 131.992188 182.804688 131.113281 181.855469 130.265625 180.847656 Z M 135.644531 181.417969 L 131.871094 176.9375 L 136.367188 173.175781 L 140.140625 177.660156 Z M 141.039062 178.726562 L 144.816406 183.207031 L 140.320312 186.96875 L 136.542969 182.484375 Z M 130.976562 175.871094 L 127.203125 171.390625 L 131.699219 167.628906 L 135.472656 172.113281 Z M 126.304688 170.324219 L 122.527344 165.839844 L 127.023438 162.082031 L 130.800781 166.5625 Z M 121.628906 164.773438 L 121.363281 164.457031 C 120.773438 162.265625 120.457031 160.125 120.367188 158.0625 L 122.289062 156.457031 L 126.125 161.015625 Z M 126.132812 172.285156 L 129.90625 176.765625 L 128.183594 178.207031 C 126.976562 176.5625 125.925781 174.898438 124.996094 173.234375 Z M 124.328125 171.972656 C 123.648438 170.65625 123.058594 169.34375 122.554688 168.035156 L 125.234375 171.21875 Z M 135.472656 183.378906 L 139.25 187.863281 L 138.40625 188.566406 C 136.863281 187.402344 135.355469 186.113281 133.894531 184.699219 Z M 140.148438 188.925781 L 141.816406 190.914062 C 141.058594 190.441406 140.304688 189.949219 139.554688 189.421875 Z M 141.214844 188.03125 L 145.710938 184.273438 L 149.488281 188.757812 L 144.992188 192.515625 Z M 142.835938 158.316406 L 146.609375 162.796875 L 142.109375 166.5625 L 138.335938 162.082031 Z M 137.4375 161.015625 L 133.660156 156.53125 L 138.164062 152.769531 L 141.9375 157.25 Z M 147.507812 163.863281 L 151.28125 168.34375 L 146.777344 172.109375 L 143.003906 167.628906 Z M 152.175781 169.410156 L 155.953125 173.894531 L 151.453125 177.660156 L 147.675781 173.175781 Z M 156.851562 174.960938 L 160.625 179.445312 L 156.125 183.207031 L 152.347656 178.722656 Z M 161.519531 180.507812 L 165.242188 184.925781 L 160.738281 188.6875 L 157.019531 184.269531 Z M 137.265625 151.703125 L 132.765625 155.464844 L 128.925781 150.90625 L 133.425781 147.144531 Z M 132.589844 157.425781 L 136.367188 161.910156 L 131.871094 165.667969 L 128.09375 161.1875 Z M 127.199219 160.121094 L 123.359375 155.5625 L 127.855469 151.800781 L 131.691406 156.359375 Z M 137.265625 162.976562 L 141.039062 167.457031 L 136.542969 171.214844 L 132.769531 166.734375 Z M 141.933594 168.523438 L 145.707031 173.003906 L 141.210938 176.761719 L 137.4375 172.28125 Z M 146.605469 174.070312 L 150.382812 178.554688 L 145.886719 182.3125 L 142.109375 177.828125 Z M 151.277344 179.621094 L 155.054688 184.101562 L 150.558594 187.863281 L 146.78125 183.378906 Z M 155.949219 185.164062 L 159.667969 189.585938 L 155.175781 193.34375 L 151.453125 188.925781 Z M 122.460938 154.496094 L 120.753906 152.46875 C 121.210938 150.203125 122.03125 148.121094 123.214844 146.292969 L 126.957031 150.734375 Z M 160.566406 190.652344 L 164.234375 195.003906 C 162.167969 195.785156 159.894531 196.140625 157.488281 196.089844 L 156.070312 194.410156 Z M 161.640625 189.757812 L 166.140625 185.992188 L 170.164062 190.769531 C 169.617188 191.433594 169.027344 192.0625 168.359375 192.621094 C 167.496094 193.34375 166.546875 193.910156 165.554688 194.402344 Z M 161.695312 178.550781 L 157.917969 174.066406 L 162.417969 170.304688 L 166.195312 174.789062 Z M 167.089844 175.851562 L 170.808594 180.269531 L 166.308594 184.035156 L 162.589844 179.613281 Z M 157.019531 173.003906 L 153.246094 168.519531 L 157.746094 164.757812 L 161.519531 169.242188 Z M 152.347656 167.453125 L 148.574219 162.972656 L 153.074219 159.210938 L 156.847656 163.691406 Z M 147.675781 161.90625 L 143.902344 157.425781 L 148.402344 153.664062 L 152.175781 158.144531 Z M 143.003906 156.359375 L 139.230469 151.875 L 143.730469 148.113281 L 147.503906 152.597656 Z M 138.332031 150.808594 L 134.496094 146.25 L 138.996094 142.488281 L 142.832031 147.046875 Z M 171.707031 181.335938 L 173.503906 183.46875 C 173.042969 185.753906 172.222656 187.832031 171.019531 189.625 L 167.207031 185.101562 Z M 133.597656 145.183594 L 129.722656 140.582031 C 131.664062 139.664062 133.789062 139.136719 136.042969 138.984375 L 138.097656 141.421875 Z M 147.230469 141.003906 L 148.398438 142.394531 L 143.902344 146.152344 L 140.0625 141.59375 L 142.535156 139.527344 C 144.082031 139.871094 145.652344 140.363281 147.230469 141.003906 Z M 155.59375 145.832031 L 154.140625 147.046875 L 150.367188 142.5625 L 150.429688 142.511719 C 152.167969 143.441406 153.894531 144.546875 155.59375 145.832031 Z M 163.332031 153.199219 C 164.179688 154.203125 164.964844 155.234375 165.714844 156.273438 L 163.484375 158.140625 L 159.710938 153.660156 L 162.015625 151.734375 C 162.453125 152.21875 162.902344 152.6875 163.332031 153.199219 Z M 153.96875 149.007812 L 157.742188 153.488281 L 153.246094 157.25 L 149.472656 152.765625 Z M 148.574219 151.699219 L 144.800781 147.21875 L 149.296875 143.460938 L 153.070312 147.941406 Z M 158.640625 154.554688 L 162.414062 159.035156 L 157.917969 162.796875 L 154.144531 158.3125 Z M 163.3125 160.101562 L 167.085938 164.585938 L 162.589844 168.34375 L 158.816406 163.863281 Z M 167.984375 165.652344 L 171.757812 170.136719 L 167.261719 173.894531 L 163.488281 169.410156 Z M 168.15625 163.691406 L 164.382812 159.207031 L 166.507812 157.429688 C 167.652344 159.105469 168.664062 160.808594 169.546875 162.527344 Z M 170.191406 163.804688 C 170.902344 165.292969 171.496094 166.78125 172.007812 168.261719 L 169.054688 164.753906 Z M 158.8125 152.59375 L 155.039062 148.113281 L 156.722656 146.707031 C 158.207031 147.90625 159.671875 149.226562 161.082031 150.695312 Z M 168.15625 174.957031 L 172.652344 171.199219 L 172.992188 171.601562 C 173.503906 173.679688 173.820312 175.71875 173.914062 177.671875 L 171.878906 179.375 Z M 140.765625 139.1875 L 139.167969 140.527344 L 137.835938 138.949219 C 138.800781 138.96875 139.773438 139.042969 140.765625 139.1875 Z M 128.464844 141.25 L 132.527344 146.078125 L 128.027344 149.839844 L 124.0625 145.132812 C 124.738281 144.265625 125.476562 143.445312 126.339844 142.722656 C 127.007812 142.164062 127.726562 141.6875 128.464844 141.25 Z M 120.460938 154.285156 L 121.390625 155.390625 L 120.339844 156.269531 C 120.359375 155.597656 120.386719 154.933594 120.460938 154.285156 Z M 146.242188 193.28125 L 150.382812 189.820312 L 154.101562 194.238281 L 152.617188 195.480469 C 150.527344 195.011719 148.386719 194.261719 146.242188 193.28125 Z M 154.40625 195.800781 L 155 195.304688 L 155.566406 195.976562 C 155.183594 195.9375 154.792969 195.859375 154.40625 195.800781 Z M 177.726562 197.988281 C 179.496094 203.363281 182.753906 209.066406 183.699219 210.667969 L 183.574219 210.773438 C 182.152344 209.570312 177.082031 205.382812 172.078125 202.710938 C 169.769531 201.472656 166.246094 200.132812 162.816406 198.945312 C 165.6875 198.324219 168.316406 197.101562 170.554688 195.230469 C 172.8125 193.339844 174.488281 190.945312 175.605469 188.199219 C 176.179688 191.78125 176.902344 195.496094 177.726562 197.988281 Z M 173.78125 181.632812 L 172.777344 180.441406 L 173.921875 179.484375 C 173.90625 180.214844 173.855469 180.929688 173.78125 181.632812 Z M 173.78125 181.632812 " fill-opacity="1" fill-rule="nonzero"/><g fill="#000000" fill-opacity="1"><g transform="translate(152.30879, 86.823793)"><g><path d="M 3.46875 -3.125 L 12.796875 -6.171875 L 13.390625 -4.375 L 1.828125 -0.59375 L -3.984375 -18.421875 L -1.75 -19.15625 Z M 3.46875 -3.125 "/></g></g></g><g fill="#000000" fill-opacity="1"><g transform="translate(163.915625, 82.884639)"><g><path d="M 8.90625 -18.78125 L 4.984375 -18.0625 L 7.6875 -3.34375 L 11.609375 -4.0625 L 11.953125 -2.203125 L 1.859375 -0.34375 L 1.515625 -2.203125 L 5.421875 -2.921875 L 2.71875 -17.640625 L -1.1875 -16.921875 L -1.53125 -18.78125 L 8.5625 -20.640625 Z M 8.90625 -18.78125 "/></g></g></g><g fill="#000000" fill-opacity="1"><g transform="translate(175.300287, 80.600323)"><g><path d="M 4.171875 -2.09375 L 13.96875 -2.578125 L 14.0625 -0.6875 L 1.921875 -0.09375 L 1 -18.828125 L 3.34375 -18.9375 Z M 4.171875 -2.09375 "/></g></g></g><g fill="#000000" fill-opacity="1"><g transform="translate(187.382133, 79.592943)"><g><path d="M 16.25 1.859375 L 14.984375 -3.109375 L 5.734375 -4.171875 L 3.375 0.390625 L 1.046875 0.125 L 10.25 -17.703125 L 13.6875 -17.296875 L 18.609375 2.140625 Z M 6.65625 -5.96875 L 14.484375 -5.0625 L 11.75 -15.828125 Z M 6.65625 -5.96875 "/></g></g></g><g fill="#000000" fill-opacity="1"><g transform="translate(204.309758, 81.349723)"><g><path d="M 15.265625 -5.484375 C 15.910156 -5.203125 16.453125 -4.804688 16.890625 -4.296875 C 17.335938 -3.785156 17.632812 -3.164062 17.78125 -2.4375 C 17.9375 -1.707031 17.867188 -0.863281 17.578125 0.09375 C 17.128906 1.570312 16.320312 2.609375 15.15625 3.203125 C 13.988281 3.796875 12.46875 3.804688 10.59375 3.234375 L 1.84375 0.5625 L 7.328125 -17.375 L 16.140625 -14.6875 C 17.410156 -14.289062 18.363281 -13.78125 19 -13.15625 C 19.632812 -12.53125 20.007812 -11.832031 20.125 -11.0625 C 20.25 -10.289062 20.179688 -9.488281 19.921875 -8.65625 C 19.535156 -7.363281 18.898438 -6.484375 18.015625 -6.015625 C 17.128906 -5.546875 16.210938 -5.367188 15.265625 -5.484375 Z M 15.109375 -13.015625 L 9 -14.875 L 7.171875 -8.890625 L 12.984375 -7.125 C 14.265625 -6.726562 15.257812 -6.703125 15.96875 -7.046875 C 16.675781 -7.398438 17.179688 -8.070312 17.484375 -9.0625 C 17.796875 -10.0625 17.796875 -10.875 17.484375 -11.5 C 17.171875 -12.125 16.378906 -12.628906 15.109375 -13.015625 Z M 10.9375 1.359375 C 12.1875 1.742188 13.15625 1.707031 13.84375 1.25 C 14.53125 0.789062 15.019531 0.0859375 15.3125 -0.859375 C 15.632812 -1.929688 15.585938 -2.851562 15.171875 -3.625 C 14.753906 -4.394531 13.875 -4.984375 12.53125 -5.390625 L 6.65625 -7.1875 L 4.625 -0.5625 Z M 10.9375 1.359375 "/></g></g></g><g fill="#000000" fill-opacity="1"><g transform="translate(110.538948, 265.101381)"><g><path d="M 23.59375 -1.703125 L 22.359375 -0.4375 L 17.828125 -4.84375 L 6.75 6.578125 L 5.1875 5.0625 L 16.265625 -6.359375 L 11.6875 -10.796875 L 12.921875 -12.0625 Z M 23.59375 -1.703125 "/></g></g></g><g fill="#000000" fill-opacity="1"><g transform="translate(122.011825, 276.305006)"><g><path d="M 4.3125 0.84375 L 13.28125 7.109375 L 12.265625 8.5625 L 1.484375 1.03125 L 11.59375 -13.453125 L 22.3125 -5.96875 L 21.296875 -4.515625 L 12.390625 -10.734375 L 8.984375 -5.859375 L 17.234375 -0.09375 L 16.234375 1.328125 L 7.984375 -4.4375 Z M 4.3125 0.84375 "/></g></g></g><g fill="#000000" fill-opacity="1"><g transform="translate(135.12485, 285.625427)"><g><path d="M 20.75 -9.796875 L 22.734375 -8.875 L 15.265625 7.125 L 11.90625 5.5625 L 10.5 -10.390625 C 10.46875 -11.347656 10.460938 -12.203125 10.484375 -12.953125 L 3.640625 1.703125 L 1.640625 0.765625 L 9.109375 -15.234375 L 12.484375 -13.65625 L 13.859375 2.328125 C 13.898438 2.671875 13.921875 3.066406 13.921875 3.515625 C 13.921875 3.972656 13.914062 4.421875 13.90625 4.859375 Z M 20.75 -9.796875 "/></g></g></g><g fill="#000000" fill-opacity="1"><g transform="translate(151.588837, 293.366958)"><g><path d="M 18.625 -13.40625 L 20.734375 -12.859375 L 16.296875 4.234375 L 12.71875 3.296875 L 8.4375 -12.125 C 8.238281 -13.0625 8.078125 -13.898438 7.953125 -14.640625 L 3.890625 1.015625 L 1.75 0.453125 L 6.1875 -16.640625 L 9.796875 -15.703125 L 14.0625 -0.234375 C 14.15625 0.0976562 14.242188 0.484375 14.328125 0.921875 C 14.410156 1.367188 14.488281 1.8125 14.5625 2.25 Z M 18.625 -13.40625 "/></g></g></g><g fill="#000000" fill-opacity="1"><g transform="translate(169.042218, 297.738229)"><g><path d="M 12.984375 -14.671875 L 9.265625 -15.046875 L 7.84375 -1 L 11.5625 -0.625 L 11.390625 1.140625 L 1.765625 0.171875 L 1.9375 -1.59375 L 5.671875 -1.21875 L 7.09375 -15.265625 L 3.359375 -15.640625 L 3.53125 -17.390625 L 13.15625 -16.421875 Z M 12.984375 -14.671875 "/></g></g></g><g fill="#000000" fill-opacity="1"><g transform="translate(181.493336, 299.200414)"><g><path d="M 1.09375 -6.125 L 3.25 -6.234375 C 3.3125 -5.328125 3.535156 -4.519531 3.921875 -3.8125 C 4.304688 -3.113281 4.90625 -2.578125 5.71875 -2.203125 C 6.539062 -1.835938 7.632812 -1.6875 9 -1.75 C 10.226562 -1.8125 11.179688 -1.988281 11.859375 -2.28125 C 12.535156 -2.582031 13.003906 -2.988281 13.265625 -3.5 C 13.523438 -4.007812 13.640625 -4.601562 13.609375 -5.28125 C 13.566406 -6.21875 13.273438 -6.914062 12.734375 -7.375 C 12.191406 -7.84375 11.363281 -8.140625 10.25 -8.265625 L 6.0625 -8.703125 C 4.507812 -8.859375 3.351562 -9.300781 2.59375 -10.03125 C 1.832031 -10.757812 1.421875 -11.789062 1.359375 -13.125 C 1.304688 -14.070312 1.503906 -14.941406 1.953125 -15.734375 C 2.398438 -16.523438 3.109375 -17.171875 4.078125 -17.671875 C 5.054688 -18.171875 6.300781 -18.457031 7.8125 -18.53125 C 10.132812 -18.644531 11.898438 -18.195312 13.109375 -17.1875 C 14.316406 -16.175781 15.023438 -14.828125 15.234375 -13.140625 L 13.109375 -13.03125 C 12.921875 -14.226562 12.414062 -15.175781 11.59375 -15.875 C 10.769531 -16.582031 9.523438 -16.894531 7.859375 -16.8125 C 6.316406 -16.738281 5.207031 -16.378906 4.53125 -15.734375 C 3.851562 -15.085938 3.539062 -14.269531 3.59375 -13.28125 C 3.625 -12.59375 3.84375 -12.003906 4.25 -11.515625 C 4.65625 -11.023438 5.363281 -10.726562 6.375 -10.625 L 10.796875 -10.15625 C 12.378906 -9.976562 13.59375 -9.535156 14.4375 -8.828125 C 15.289062 -8.117188 15.75 -7.0625 15.8125 -5.65625 C 15.894531 -3.976562 15.410156 -2.648438 14.359375 -1.671875 C 13.304688 -0.703125 11.546875 -0.15625 9.078125 -0.03125 C 7.179688 0.0507812 5.65625 -0.171875 4.5 -0.703125 C 3.351562 -1.242188 2.507812 -1.992188 1.96875 -2.953125 C 1.4375 -3.910156 1.144531 -4.96875 1.09375 -6.125 Z M 1.09375 -6.125 "/></g></g></g><g fill="#000000" fill-opacity="1"><g transform="translate(197.982357, 298.162207)"><g/></g></g><g fill="#000000" fill-opacity="1"><g transform="translate(203.142241, 297.843019)"><g><path d="M 10.015625 -2.390625 C 8.066406 -1.835938 6.351562 -1.769531 4.875 -2.1875 C 3.40625 -2.601562 2.175781 -3.394531 1.1875 -4.5625 C 0.195312 -5.738281 -0.546875 -7.1875 -1.046875 -8.90625 C -1.523438 -10.613281 -1.644531 -12.222656 -1.40625 -13.734375 C -1.175781 -15.253906 -0.546875 -16.582031 0.484375 -17.71875 C 1.515625 -18.863281 3.003906 -19.71875 4.953125 -20.28125 C 7.566406 -21.03125 9.675781 -20.984375 11.28125 -20.140625 C 12.894531 -19.296875 14.101562 -17.84375 14.90625 -15.78125 L 12.75 -15.171875 C 12.113281 -16.773438 11.1875 -17.863281 9.96875 -18.4375 C 8.757812 -19.007812 7.238281 -19.035156 5.40625 -18.515625 C 3.289062 -17.910156 1.890625 -16.859375 1.203125 -15.359375 C 0.515625 -13.859375 0.507812 -11.914062 1.1875 -9.53125 C 1.863281 -7.164062 2.882812 -5.523438 4.25 -4.609375 C 5.613281 -3.691406 7.347656 -3.535156 9.453125 -4.140625 C 11.378906 -4.691406 12.695312 -5.582031 13.40625 -6.8125 C 14.125 -8.050781 14.296875 -9.546875 13.921875 -11.296875 L 16.09375 -11.921875 C 16.414062 -10.472656 16.4375 -9.117188 16.15625 -7.859375 C 15.875 -6.609375 15.234375 -5.515625 14.234375 -4.578125 C 13.242188 -3.640625 11.835938 -2.910156 10.015625 -2.390625 Z M 10.015625 -2.390625 "/></g></g></g><g fill="#000000" fill-opacity="1"><g transform="translate(221.7984, 292.294916)"><g><path d="M 2.859375 -3.328125 L 11.203125 -7.296875 L 11.96875 -5.6875 L 1.640625 -0.78125 L -5.921875 -16.734375 L -3.9375 -17.671875 Z M 2.859375 -3.328125 "/></g></g></g><g fill="#000000" fill-opacity="1"><g transform="translate(233.794551, 286.833095)"><g><path d="M -2.078125 -6.234375 L -8.4375 -15.609375 L -6.640625 -16.828125 L -0.4375 -7.671875 C 0.320312 -6.554688 1.066406 -5.789062 1.796875 -5.375 C 2.535156 -4.957031 3.289062 -4.832031 4.0625 -5 C 4.84375 -5.164062 5.691406 -5.5625 6.609375 -6.1875 C 7.515625 -6.800781 8.1875 -7.4375 8.625 -8.09375 C 9.070312 -8.757812 9.238281 -9.507812 9.125 -10.34375 C 9.007812 -11.175781 8.570312 -12.148438 7.8125 -13.265625 L 1.609375 -22.421875 L 3.4375 -23.65625 L 9.796875 -14.28125 C 10.992188 -12.507812 11.441406 -10.8125 11.140625 -9.1875 C 10.847656 -7.5625 9.679688 -6.0625 7.640625 -4.6875 C 5.609375 -3.300781 3.78125 -2.765625 2.15625 -3.078125 C 0.539062 -3.390625 -0.867188 -4.441406 -2.078125 -6.234375 Z M -2.078125 -6.234375 "/></g></g></g><g fill="#000000" fill-opacity="1"><g transform="translate(248.139327, 277.127898)"><g><path d="M 2.46875 -15.078125 C 3 -15.484375 3.570312 -15.75 4.1875 -15.875 C 4.8125 -16 5.460938 -15.957031 6.140625 -15.75 C 6.816406 -15.539062 7.476562 -15.097656 8.125 -14.421875 C 9.125 -13.378906 9.601562 -12.238281 9.5625 -11 C 9.519531 -9.769531 8.835938 -8.519531 7.515625 -7.25 L 1.3125 -1.265625 L -10.9375 -13.96875 L -4.703125 -19.984375 C -3.796875 -20.859375 -2.941406 -21.414062 -2.140625 -21.65625 C -1.335938 -21.894531 -0.59375 -21.882812 0.09375 -21.625 C 0.789062 -21.363281 1.421875 -20.941406 1.984375 -20.359375 C 2.867188 -19.441406 3.304688 -18.515625 3.296875 -17.578125 C 3.285156 -16.640625 3.007812 -15.804688 2.46875 -15.078125 Z M -3.796875 -18.40625 L -8.140625 -14.21875 L -4.03125 -9.96875 L 0.09375 -13.953125 C 1 -14.828125 1.46875 -15.632812 1.5 -16.375 C 1.53125 -17.113281 1.207031 -17.835938 0.53125 -18.546875 C -0.15625 -19.253906 -0.820312 -19.625 -1.46875 -19.65625 C -2.125 -19.6875 -2.898438 -19.269531 -3.796875 -18.40625 Z M 6.125 -8.375 C 7.007812 -9.226562 7.421875 -10.039062 7.359375 -10.8125 C 7.296875 -11.59375 6.9375 -12.320312 6.28125 -13 C 5.5625 -13.75 4.789062 -14.128906 3.96875 -14.140625 C 3.144531 -14.160156 2.25 -13.707031 1.28125 -12.78125 L -2.875 -8.765625 L 1.65625 -4.0625 Z M 6.125 -8.375 "/></g></g></g></svg>