<svg xmlns="http://www.w3.org/2000/svg" xmlns:xlink="http://www.w3.org/1999/xlink" width="500" zoomAndPan="magnify" viewBox="0 0 375 374.999991" height="500" preserveAspectRatio="xMidYMid meet" version="1.0"><defs><g/><clipPath id="0fedaf44f3"><path d="M 91.984375 88.542969 L 284.734375 88.542969 L 284.734375 277.542969 L 91.984375 277.542969 Z M 91.984375 88.542969 " clip-rule="nonzero"/></clipPath><clipPath id="76caf97d58"><path d="M 188.179688 88.542969 C 135.054688 88.542969 91.984375 130.898438 91.984375 183.144531 C 91.984375 235.390625 135.054688 277.742188 188.179688 277.742188 C 241.304688 277.742188 284.371094 235.390625 284.371094 183.144531 C 284.371094 130.898438 241.304688 88.542969 188.179688 88.542969 Z M 188.179688 88.542969 " clip-rule="nonzero"/></clipPath><clipPath id="eb1515f762"><path d="M 101.777344 100.789062 L 274 100.789062 L 274 268 L 101.777344 268 Z M 101.777344 100.789062 " clip-rule="nonzero"/></clipPath><clipPath id="a2031750ba"><path d="M 187.882812 100.789062 C 140.328125 100.789062 101.777344 138.203125 101.777344 184.355469 C 101.777344 230.507812 140.328125 267.921875 187.882812 267.921875 C 235.4375 267.921875 273.984375 230.507812 273.984375 184.355469 C 273.984375 138.203125 235.4375 100.789062 187.882812 100.789062 Z M 187.882812 100.789062 " clip-rule="nonzero"/></clipPath><clipPath id="d66cec183a"><path d="M 179.558594 148.203125 L 196.058594 148.203125 L 196.058594 164.703125 L 179.558594 164.703125 Z M 179.558594 148.203125 " clip-rule="nonzero"/></clipPath><clipPath id="a448267398"><path d="M 179.558594 148.203125 L 195 148.203125 L 195 163 L 179.558594 163 Z M 179.558594 148.203125 " clip-rule="nonzero"/></clipPath></defs><rect x="-37.5" width="450" fill="#ffffff" y="-37.499999" height="449.999989" fill-opacity="1"/><rect x="-37.5" width="450" fill="#255b4d" y="-37.499999" height="449.999989" fill-opacity="1"/><g clip-path="url(#0fedaf44f3)"><g clip-path="url(#76caf97d58)"><path stroke-linecap="butt" transform="matrix(0.75, 0, 0, 0.75, 91.985946, 88.544634)" fill="none" stroke-linejoin="miter" d="M 128.258331 -0.00222058 C 57.424993 -0.00222058 -0.00209421 56.471741 -0.00209421 126.133204 C -0.00209421 195.794667 57.424993 252.263421 128.258331 252.263421 C 199.091669 252.263421 256.513548 195.794667 256.513548 126.133204 C 256.513548 56.471741 199.091669 -0.00222058 128.258331 -0.00222058 Z M 128.258331 -0.00222058 " stroke="#f4f4f4" stroke-width="1.6" stroke-opacity="1" stroke-miterlimit="4"/></g></g><g clip-path="url(#eb1515f762)"><g clip-path="url(#a2031750ba)"><path stroke-linecap="butt" transform="matrix(0.75, 0, 0, 0.75, 101.778821, 100.788495)" fill="none" stroke-linejoin="miter" d="M 114.805322 0.000756691 C 51.399072 0.000756691 -0.00196969 49.886173 -0.00196969 111.422632 C -0.00196969 172.95909 51.399072 222.844507 114.805322 222.844507 C 178.211572 222.844507 229.607406 172.95909 229.607406 111.422632 C 229.607406 49.886173 178.211572 0.000756691 114.805322 0.000756691 Z M 114.805322 0.000756691 " stroke="#f4f4f4" stroke-width="2.4" stroke-opacity="1" stroke-miterlimit="4"/></g></g><path fill="#f4f4f4" d="M 220.980469 183.875 C 228.871094 174.472656 229.457031 163.265625 223.09375 157.925781 C 216.730469 152.585938 205.792969 155.109375 197.902344 164.511719 C 193.699219 169.523438 191.378906 175.273438 191.09375 180.359375 L 190.914062 180.335938 C 190.90625 180.421875 190.042969 188.769531 188.882812 192.296875 C 187.976562 195.054688 186.320312 198.066406 185.632812 199.265625 L 185.226562 198.921875 L 170.945312 215.941406 L 169.566406 216.1875 L 168.34375 217.640625 L 173.910156 222.308594 L 175.222656 220.742188 L 175.085938 219.171875 L 189.246094 202.296875 L 188.914062 202.019531 C 189.972656 201.132812 192.652344 198.980469 195.210938 197.609375 C 198.484375 195.851562 206.554688 193.550781 206.636719 193.527344 L 206.578125 193.324219 C 211.53125 192.160156 216.78125 188.882812 220.980469 183.875 Z M 199.480469 165.832031 C 199.738281 165.523438 200.007812 165.242188 200.273438 164.949219 L 201.332031 165.835938 L 199.058594 168.546875 L 198.042969 167.695312 C 198.492188 167.066406 198.96875 166.441406 199.480469 165.832031 Z M 199.703125 169.085938 L 201.976562 166.375 L 204.683594 168.648438 L 202.410156 171.359375 Z M 201.871094 172.003906 L 199.59375 174.714844 L 196.886719 172.441406 L 199.160156 169.730469 Z M 202.515625 165.734375 L 204.789062 163.023438 L 207.5 165.296875 L 205.226562 168.007812 Z M 205.332031 162.378906 L 207.605469 159.667969 L 210.316406 161.941406 L 208.039062 164.652344 Z M 208.148438 159.023438 L 208.308594 158.832031 C 209.550781 158.25 210.792969 157.839844 212.011719 157.566406 L 213.167969 158.539062 L 210.855469 161.296875 Z M 204.144531 162.484375 L 201.871094 165.191406 L 200.835938 164.320312 C 201.6875 163.433594 202.566406 162.632812 203.460938 161.910156 Z M 204.140625 161.378906 C 204.855469 160.839844 205.574219 160.351562 206.300781 159.914062 L 204.6875 161.835938 Z M 198.515625 169.191406 L 196.242188 171.902344 L 195.734375 171.476562 C 196.265625 170.4375 196.875 169.40625 197.566406 168.390625 Z M 195.703125 172.546875 L 194.695312 173.746094 C 194.894531 173.246094 195.109375 172.746094 195.34375 172.246094 Z M 196.34375 173.085938 L 199.054688 175.359375 L 196.78125 178.070312 L 194.070312 175.796875 Z M 214.210938 170.925781 L 211.9375 173.636719 L 209.226562 171.363281 L 211.5 168.652344 Z M 212.039062 168.007812 L 214.3125 165.296875 L 217.027344 167.570312 L 214.75 170.28125 Z M 211.394531 174.28125 L 209.121094 176.992188 L 206.410156 174.714844 L 208.683594 172.003906 Z M 208.582031 177.636719 L 206.304688 180.347656 L 203.59375 178.070312 L 205.871094 175.359375 Z M 205.765625 180.992188 L 203.492188 183.703125 L 200.777344 181.425781 L 203.054688 178.714844 Z M 202.953125 184.34375 L 200.710938 187.015625 L 197.996094 184.742188 L 200.238281 182.070312 Z M 217.566406 166.925781 L 214.855469 164.652344 L 217.167969 161.894531 L 219.878906 164.171875 Z M 213.667969 164.753906 L 211.394531 167.464844 L 208.6875 165.191406 L 210.960938 162.480469 Z M 211.5 161.835938 L 213.8125 159.082031 L 216.523438 161.355469 L 214.210938 164.109375 Z M 210.851562 168.109375 L 208.578125 170.820312 L 205.871094 168.546875 L 208.144531 165.835938 Z M 208.039062 171.464844 L 205.765625 174.175781 L 203.054688 171.902344 L 205.332031 169.191406 Z M 205.222656 174.820312 L 202.949219 177.53125 L 200.242188 175.257812 L 202.515625 172.546875 Z M 202.410156 178.175781 L 200.132812 180.886719 L 197.425781 178.613281 L 199.699219 175.902344 Z M 199.59375 181.527344 L 197.351562 184.199219 L 194.644531 181.925781 L 196.886719 179.253906 Z M 214.355469 158.4375 L 215.382812 157.210938 C 216.78125 157.246094 218.105469 157.511719 219.320312 158.023438 L 217.0625 160.710938 Z M 196.8125 184.84375 L 194.601562 187.476562 C 193.921875 186.335938 193.472656 185.023438 193.25 183.589844 L 194.101562 182.570312 Z M 197.457031 185.386719 L 200.167969 187.664062 L 197.742188 190.550781 C 197.292969 190.296875 196.855469 190.011719 196.453125 189.675781 C 195.933594 189.238281 195.496094 188.734375 195.097656 188.199219 Z M 204.132812 184.242188 L 206.410156 181.53125 L 209.121094 183.808594 L 206.84375 186.519531 Z M 206.304688 187.160156 L 204.0625 189.832031 L 201.351562 187.558594 L 203.59375 184.886719 Z M 206.949219 180.886719 L 209.222656 178.175781 L 211.9375 180.453125 L 209.660156 183.164062 Z M 209.765625 177.53125 L 212.039062 174.820312 L 214.75 177.097656 L 212.476562 179.804688 Z M 212.578125 174.175781 L 214.851562 171.46875 L 217.566406 173.742188 L 215.292969 176.453125 Z M 215.394531 170.824219 L 217.667969 168.113281 L 220.378906 170.386719 L 218.105469 173.097656 Z M 218.210938 167.46875 L 220.523438 164.710938 L 223.234375 166.984375 L 220.921875 169.742188 Z M 203.523438 190.476562 L 202.441406 191.765625 C 201.03125 191.734375 199.707031 191.464844 198.515625 190.9375 L 200.8125 188.203125 Z M 221.0625 164.066406 L 223.398438 161.285156 C 224.148438 162.339844 224.6875 163.546875 225.011719 164.867188 L 223.777344 166.339844 Z M 224.980469 171.71875 L 224.277344 172.554688 L 221.566406 170.285156 L 223.878906 167.527344 L 225.371094 168.777344 C 225.328125 169.730469 225.199219 170.714844 224.980469 171.71875 Z M 222.980469 177.1875 L 222.105469 176.453125 L 224.378906 173.742188 L 224.417969 173.773438 C 224.042969 174.902344 223.566406 176.042969 222.980469 177.1875 Z M 219.402344 182.554688 C 218.894531 183.160156 218.363281 183.734375 217.820312 184.289062 L 216.476562 183.160156 L 218.75 180.453125 L 220.136719 181.617188 C 219.894531 181.929688 219.664062 182.242188 219.402344 182.554688 Z M 220.917969 176.558594 L 218.644531 179.265625 L 215.9375 176.992188 L 218.210938 174.285156 Z M 218.75 173.636719 L 221.027344 170.929688 L 223.734375 173.203125 L 221.460938 175.910156 Z M 218.105469 179.910156 L 215.832031 182.621094 L 213.121094 180.347656 L 215.394531 177.636719 Z M 215.289062 183.265625 L 213.015625 185.976562 L 210.304688 183.703125 L 212.582031 180.992188 Z M 212.472656 186.621094 L 210.199219 189.332031 L 207.492188 187.058594 L 209.765625 184.347656 Z M 213.660156 186.519531 L 215.9375 183.808594 L 217.21875 184.882812 C 216.335938 185.734375 215.429688 186.515625 214.5 187.222656 Z M 213.804688 187.738281 C 212.992188 188.316406 212.167969 188.824219 211.339844 189.28125 L 213.121094 187.164062 Z M 219.289062 179.808594 L 221.566406 177.097656 L 222.578125 177.949219 C 222.019531 178.957031 221.386719 179.960938 220.65625 180.957031 Z M 206.953125 187.699219 L 209.660156 189.972656 L 209.457031 190.21875 C 208.273438 190.738281 207.089844 191.140625 205.9375 191.402344 L 204.710938 190.371094 Z M 225.386719 167.691406 L 224.421875 166.882812 L 225.222656 165.929688 C 225.3125 166.5 225.367188 167.085938 225.386719 167.691406 Z M 222.871094 160.609375 L 220.421875 163.527344 L 217.707031 161.25 L 220.097656 158.402344 C 220.6875 158.714844 221.25 159.066406 221.769531 159.5 C 222.175781 159.839844 222.535156 160.214844 222.871094 160.609375 Z M 214.269531 157.226562 L 213.710938 157.894531 L 213.078125 157.363281 C 213.476562 157.304688 213.875 157.25 214.269531 157.226562 Z M 193.746094 176.621094 L 196.242188 178.714844 L 194 181.386719 L 193.105469 180.636719 C 193.164062 179.34375 193.386719 177.996094 193.746094 176.621094 Z M 193.097656 181.730469 L 193.457031 182.03125 L 193.117188 182.4375 C 193.101562 182.207031 193.105469 181.964844 193.097656 181.730469 Z M 194.238281 195.796875 C 191.222656 197.414062 188.167969 199.945312 187.3125 200.671875 L 187.234375 200.609375 C 187.804688 199.640625 189.769531 196.191406 190.835938 192.941406 C 191.328125 191.441406 191.757812 189.207031 192.109375 187.050781 C 192.777344 188.691406 193.78125 190.121094 195.128906 191.25 C 196.492188 192.394531 198.089844 193.136719 199.84375 193.511719 C 197.769531 194.226562 195.636719 195.046875 194.238281 195.796875 Z M 203.5625 191.738281 L 204.167969 191.019531 L 204.859375 191.597656 C 204.421875 191.664062 203.988281 191.710938 203.5625 191.738281 Z M 203.5625 191.738281 " fill-opacity="1" fill-rule="nonzero"/><path fill="#f4f4f4" d="M 175.089844 165.171875 C 167.199219 155.765625 156.265625 153.242188 149.902344 158.582031 C 143.539062 163.921875 144.125 175.128906 152.015625 184.535156 C 156.21875 189.546875 161.476562 192.828125 166.4375 193.992188 L 166.386719 194.164062 C 166.46875 194.1875 174.535156 196.488281 177.8125 198.246094 C 180.371094 199.613281 183.046875 201.769531 184.109375 202.652344 L 183.699219 202.996094 L 197.980469 220.015625 L 197.984375 221.414062 L 199.203125 222.871094 L 204.765625 218.199219 L 203.453125 216.632812 L 201.882812 216.496094 L 187.71875 199.621094 L 187.390625 199.898438 C 186.699219 198.703125 185.046875 195.6875 184.140625 192.933594 C 182.980469 189.40625 182.113281 181.058594 182.105469 180.972656 L 181.898438 180.992188 C 181.609375 175.914062 179.289062 170.175781 175.089844 165.171875 Z M 153.589844 183.210938 C 153.328125 182.902344 153.097656 182.589844 152.855469 182.277344 L 153.914062 181.386719 L 156.1875 184.097656 L 155.171875 184.949219 C 154.632812 184.394531 154.101562 183.820312 153.589844 183.210938 Z M 156.832031 183.558594 L 154.558594 180.847656 L 157.265625 178.574219 L 159.539062 181.285156 Z M 160.082031 181.929688 L 162.355469 184.640625 L 159.648438 186.914062 L 157.371094 184.203125 Z M 154.015625 180.203125 L 151.742188 177.492188 L 154.453125 175.21875 L 156.726562 177.929688 Z M 151.203125 176.847656 L 148.929688 174.136719 L 151.636719 171.863281 L 153.910156 174.574219 Z M 148.386719 173.492188 L 148.226562 173.300781 C 147.871094 171.976562 147.679688 170.683594 147.625 169.433594 L 148.78125 168.464844 L 151.097656 171.21875 Z M 151.097656 178.035156 L 153.375 180.742188 L 152.335938 181.613281 C 151.609375 180.621094 150.976562 179.617188 150.414062 178.609375 Z M 150.011719 177.847656 C 149.601562 177.050781 149.246094 176.257812 148.945312 175.464844 L 150.558594 177.390625 Z M 156.726562 184.742188 L 159.003906 187.453125 L 158.496094 187.878906 C 157.566406 187.175781 156.65625 186.394531 155.777344 185.542969 Z M 159.542969 188.097656 L 160.550781 189.296875 C 160.09375 189.015625 159.640625 188.714844 159.1875 188.398438 Z M 160.1875 187.558594 L 162.898438 185.285156 L 165.171875 187.996094 L 162.464844 190.269531 Z M 161.164062 169.589844 L 163.4375 172.296875 L 160.726562 174.574219 L 158.453125 171.863281 Z M 157.910156 171.21875 L 155.636719 168.507812 L 158.347656 166.234375 L 160.621094 168.945312 Z M 163.976562 172.941406 L 166.253906 175.652344 L 163.539062 177.929688 L 161.265625 175.21875 Z M 166.792969 176.296875 L 169.066406 179.007812 L 166.355469 181.285156 L 164.082031 178.574219 Z M 169.609375 179.652344 L 171.882812 182.363281 L 169.171875 184.640625 L 166.898438 181.929688 Z M 172.421875 183.007812 L 174.664062 185.679688 L 171.953125 187.953125 L 169.710938 185.28125 Z M 157.808594 165.589844 L 155.09375 167.863281 L 152.78125 165.109375 L 155.496094 162.832031 Z M 154.992188 169.050781 L 157.265625 171.761719 L 154.558594 174.035156 L 152.28125 171.324219 Z M 151.742188 170.679688 L 149.429688 167.921875 L 152.136719 165.648438 L 154.449219 168.40625 Z M 157.808594 172.40625 L 160.082031 175.117188 L 157.371094 177.390625 L 155.097656 174.679688 Z M 160.621094 175.757812 L 162.894531 178.46875 L 160.1875 180.742188 L 157.914062 178.03125 Z M 163.4375 179.113281 L 165.710938 181.824219 L 163.003906 184.097656 L 160.726562 181.386719 Z M 166.25 182.46875 L 168.527344 185.179688 L 165.816406 187.453125 L 163.542969 184.742188 Z M 169.066406 185.824219 L 171.308594 188.496094 L 168.597656 190.769531 L 166.355469 188.097656 Z M 148.886719 167.277344 L 147.859375 166.050781 C 148.136719 164.683594 148.628906 163.421875 149.339844 162.316406 L 151.597656 165.003906 Z M 171.847656 189.140625 L 174.058594 191.773438 C 172.8125 192.246094 171.445312 192.460938 169.992188 192.429688 L 169.140625 191.414062 Z M 172.492188 188.597656 L 175.207031 186.324219 L 177.628906 189.214844 C 177.300781 189.613281 176.945312 189.996094 176.542969 190.332031 C 176.023438 190.769531 175.449219 191.109375 174.851562 191.410156 Z M 172.527344 181.824219 L 170.253906 179.113281 L 172.964844 176.839844 L 175.238281 179.550781 Z M 175.777344 180.191406 L 178.019531 182.863281 L 175.308594 185.140625 L 173.066406 182.46875 Z M 169.710938 178.46875 L 167.4375 175.757812 L 170.148438 173.484375 L 172.421875 176.195312 Z M 166.894531 175.113281 L 164.621094 172.402344 L 167.332031 170.128906 L 169.605469 172.835938 Z M 164.082031 171.757812 L 161.808594 169.050781 L 164.519531 166.773438 L 166.792969 169.484375 Z M 161.265625 168.40625 L 158.992188 165.695312 L 161.703125 163.417969 L 163.976562 166.128906 Z M 158.453125 165.050781 L 156.136719 162.292969 L 158.847656 160.015625 L 161.164062 162.773438 Z M 178.5625 183.507812 L 179.644531 184.796875 C 179.367188 186.179688 178.871094 187.4375 178.144531 188.519531 L 175.847656 185.785156 Z M 155.597656 161.648438 L 153.261719 158.867188 C 154.433594 158.308594 155.714844 157.992188 157.070312 157.898438 L 158.308594 159.371094 Z M 163.8125 159.121094 L 164.515625 159.960938 L 161.808594 162.234375 L 159.492188 159.476562 L 160.984375 158.226562 C 161.917969 158.433594 162.859375 158.730469 163.8125 159.121094 Z M 168.851562 162.039062 L 167.976562 162.773438 L 165.703125 160.0625 L 165.738281 160.03125 C 166.785156 160.59375 167.828125 161.261719 168.851562 162.039062 Z M 173.515625 166.492188 C 174.027344 167.101562 174.5 167.726562 174.949219 168.351562 L 173.605469 169.480469 L 171.332031 166.773438 L 172.71875 165.605469 C 172.984375 165.902344 173.253906 166.183594 173.515625 166.492188 Z M 167.871094 163.960938 L 170.144531 166.667969 L 167.4375 168.941406 L 165.164062 166.234375 Z M 164.621094 165.589844 L 162.347656 162.878906 L 165.058594 160.605469 L 167.332031 163.316406 Z M 170.6875 167.3125 L 172.960938 170.023438 L 170.25 172.296875 L 167.976562 169.585938 Z M 173.5 170.667969 L 175.777344 173.378906 L 173.066406 175.652344 L 170.792969 172.941406 Z M 176.316406 174.023438 L 178.59375 176.734375 L 175.882812 179.007812 L 173.609375 176.296875 Z M 176.421875 172.835938 L 174.148438 170.125 L 175.429688 169.050781 C 176.117188 170.066406 176.726562 171.097656 177.261719 172.132812 Z M 177.648438 172.90625 C 178.078125 173.808594 178.433594 174.707031 178.742188 175.601562 L 176.960938 173.480469 Z M 170.792969 166.128906 L 168.519531 163.417969 L 169.53125 162.566406 C 170.425781 163.292969 171.308594 164.09375 172.160156 164.980469 Z M 176.421875 179.652344 L 179.132812 177.378906 L 179.335938 177.621094 C 179.644531 178.878906 179.835938 180.109375 179.890625 181.292969 L 178.664062 182.320312 Z M 159.917969 158.023438 L 158.953125 158.832031 L 158.152344 157.875 C 158.730469 157.886719 159.320312 157.933594 159.917969 158.023438 Z M 152.503906 159.269531 L 154.953125 162.1875 L 152.242188 164.464844 L 149.851562 161.617188 C 150.261719 161.089844 150.707031 160.59375 151.222656 160.160156 C 151.628906 159.820312 152.058594 159.53125 152.503906 159.269531 Z M 147.683594 167.152344 L 148.242188 167.820312 L 147.609375 168.351562 C 147.621094 167.945312 147.636719 167.542969 147.683594 167.152344 Z M 163.214844 190.730469 L 165.710938 188.636719 L 167.953125 191.308594 L 167.058594 192.058594 C 165.796875 191.777344 164.507812 191.324219 163.214844 190.730469 Z M 168.136719 192.253906 L 168.496094 191.953125 L 168.835938 192.359375 C 168.605469 192.335938 168.371094 192.289062 168.136719 192.253906 Z M 182.1875 193.578125 C 183.253906 196.828125 185.21875 200.277344 185.789062 201.246094 L 185.710938 201.308594 C 184.855469 200.582031 181.800781 198.046875 178.785156 196.433594 C 177.394531 195.683594 175.269531 194.875 173.203125 194.15625 C 174.933594 193.78125 176.519531 193.039062 177.867188 191.910156 C 179.226562 190.765625 180.234375 189.320312 180.910156 187.65625 C 181.253906 189.824219 181.691406 192.070312 182.1875 193.578125 Z M 179.808594 183.6875 L 179.207031 182.96875 L 179.894531 182.386719 C 179.886719 182.832031 179.855469 183.261719 179.808594 183.6875 Z M 179.808594 183.6875 " fill-opacity="1" fill-rule="nonzero"/><g clip-path="url(#d66cec183a)"><path fill="#f4f4f4" d="M 196.210938 156.527344 C 196.210938 157.074219 196.15625 157.617188 196.050781 158.152344 C 195.945312 158.6875 195.785156 159.210938 195.578125 159.714844 C 195.367188 160.21875 195.109375 160.699219 194.808594 161.152344 C 194.503906 161.609375 194.160156 162.027344 193.773438 162.414062 C 193.386719 162.800781 192.964844 163.148438 192.511719 163.453125 C 192.054688 163.753906 191.574219 164.011719 191.070312 164.21875 C 190.566406 164.429688 190.046875 164.585938 189.507812 164.695312 C 188.972656 164.800781 188.429688 164.855469 187.882812 164.855469 C 187.335938 164.855469 186.796875 164.800781 186.261719 164.695312 C 185.722656 164.585938 185.203125 164.429688 184.699219 164.21875 C 184.191406 164.011719 183.714844 163.753906 183.257812 163.453125 C 182.804688 163.148438 182.382812 162.800781 181.996094 162.414062 C 181.609375 162.027344 181.265625 161.609375 180.960938 161.152344 C 180.65625 160.699219 180.402344 160.21875 180.191406 159.714844 C 179.984375 159.210938 179.824219 158.6875 179.71875 158.152344 C 179.613281 157.617188 179.558594 157.074219 179.558594 156.527344 C 179.558594 155.980469 179.613281 155.441406 179.71875 154.902344 C 179.824219 154.367188 179.984375 153.847656 180.191406 153.34375 C 180.402344 152.835938 180.65625 152.355469 180.960938 151.902344 C 181.265625 151.449219 181.609375 151.027344 181.996094 150.640625 C 182.382812 150.253906 182.804688 149.910156 183.257812 149.605469 C 183.714844 149.300781 184.191406 149.046875 184.699219 148.835938 C 185.203125 148.625 185.722656 148.46875 186.261719 148.363281 C 186.796875 148.253906 187.335938 148.203125 187.882812 148.203125 C 188.429688 148.203125 188.972656 148.253906 189.507812 148.363281 C 190.046875 148.46875 190.566406 148.625 191.070312 148.835938 C 191.574219 149.046875 192.054688 149.300781 192.511719 149.605469 C 192.964844 149.910156 193.386719 150.253906 193.773438 150.640625 C 194.160156 151.027344 194.503906 151.449219 194.808594 151.902344 C 195.109375 152.355469 195.367188 152.835938 195.578125 153.34375 C 195.785156 153.847656 195.945312 154.367188 196.050781 154.902344 C 196.15625 155.441406 196.210938 155.980469 196.210938 156.527344 Z M 196.210938 156.527344 " fill-opacity="1" fill-rule="nonzero"/></g><g clip-path="url(#a448267398)"><path fill="#255b4d" d="M 192.441406 153.300781 C 194.589844 155.445312 194.589844 158.941406 192.441406 161.085938 C 190.296875 163.234375 186.800781 163.234375 184.65625 161.085938 L 184.53125 160.960938 C 184.046875 160.476562 183.664062 159.886719 183.390625 159.207031 C 183.074219 158.414062 182.605469 157.703125 181.996094 157.097656 C 181.3125 156.410156 180.492188 155.90625 179.609375 155.601562 C 179.648438 155.238281 179.714844 154.878906 179.800781 154.53125 C 180.882812 154.878906 181.898438 155.480469 182.757812 156.339844 C 183.484375 157.066406 184.027344 157.90625 184.386719 158.804688 C 184.597656 159.324219 184.894531 159.804688 185.292969 160.203125 L 185.417969 160.324219 C 187.144531 162.058594 189.953125 162.058594 191.683594 160.324219 C 192.546875 159.460938 192.980469 158.328125 192.980469 157.191406 C 192.980469 156.058594 192.546875 154.925781 191.683594 154.058594 L 191.558594 153.933594 C 191.160156 153.539062 190.683594 153.238281 190.164062 153.03125 C 189.265625 152.671875 188.421875 152.128906 187.695312 151.402344 C 186.835938 150.542969 186.234375 149.523438 185.886719 148.445312 C 186.234375 148.359375 186.59375 148.292969 186.957031 148.253906 C 187.265625 149.140625 187.773438 149.957031 188.453125 150.640625 C 189.0625 151.246094 189.769531 151.714844 190.5625 152.035156 C 191.242188 152.308594 191.835938 152.691406 192.316406 153.175781 Z M 192.441406 153.300781 " fill-opacity="1" fill-rule="nonzero"/></g><g fill="#f4f4f4" fill-opacity="1"><g transform="translate(166.932743, 126.386529)"><g><path d="M 2.09375 -1.875 L 7.71875 -3.71875 L 8.078125 -2.640625 L 1.09375 -0.359375 L -2.421875 -11.125 L -1.0625 -11.5625 Z M 2.09375 -1.875 "/></g></g></g><g fill="#f4f4f4" fill-opacity="1"><g transform="translate(173.941314, 124.007951)"><g><path d="M 5.375 -11.34375 L 3.015625 -10.90625 L 4.65625 -2.015625 L 7.015625 -2.453125 L 7.21875 -1.328125 L 1.125 -0.203125 L 0.921875 -1.328125 L 3.28125 -1.765625 L 1.640625 -10.65625 L -0.71875 -10.21875 L -0.921875 -11.34375 L 5.171875 -12.46875 Z M 5.375 -11.34375 "/></g></g></g><g fill="#f4f4f4" fill-opacity="1"><g transform="translate(180.815722, 122.628615)"><g><path d="M 2.515625 -1.265625 L 8.421875 -1.5625 L 8.484375 -0.421875 L 1.15625 -0.0625 L 0.609375 -11.375 L 2.03125 -11.4375 Z M 2.515625 -1.265625 "/></g></g></g><g fill="#f4f4f4" fill-opacity="1"><g transform="translate(188.111123, 122.020323)"><g><path d="M 9.8125 1.125 L 9.03125 -1.875 L 3.46875 -2.515625 L 2.03125 0.234375 L 0.625 0.078125 L 6.1875 -10.6875 L 8.265625 -10.453125 L 11.234375 1.296875 Z M 4.015625 -3.59375 L 8.75 -3.046875 L 7.09375 -9.5625 Z M 4.015625 -3.59375 "/></g></g></g><g fill="#f4f4f4" fill-opacity="1"><g transform="translate(198.33254, 123.081115)"><g><path d="M 9.21875 -3.3125 C 9.601562 -3.144531 9.925781 -2.90625 10.1875 -2.59375 C 10.457031 -2.289062 10.640625 -1.914062 10.734375 -1.46875 C 10.835938 -1.03125 10.800781 -0.519531 10.625 0.0625 C 10.351562 0.945312 9.863281 1.566406 9.15625 1.921875 C 8.445312 2.285156 7.523438 2.296875 6.390625 1.953125 L 1.109375 0.34375 L 4.421875 -10.484375 L 9.75 -8.859375 C 10.519531 -8.628906 11.09375 -8.320312 11.46875 -7.9375 C 11.851562 -7.5625 12.082031 -7.140625 12.15625 -6.671875 C 12.226562 -6.203125 12.1875 -5.71875 12.03125 -5.21875 C 11.789062 -4.445312 11.40625 -3.914062 10.875 -3.625 C 10.34375 -3.34375 9.789062 -3.238281 9.21875 -3.3125 Z M 9.125 -7.875 L 5.4375 -9 L 4.34375 -5.375 L 7.859375 -4.296875 C 8.617188 -4.066406 9.210938 -4.050781 9.640625 -4.25 C 10.066406 -4.457031 10.367188 -4.863281 10.546875 -5.46875 C 10.734375 -6.070312 10.734375 -6.5625 10.546875 -6.9375 C 10.359375 -7.320312 9.882812 -7.632812 9.125 -7.875 Z M 6.609375 0.828125 C 7.359375 1.054688 7.941406 1.03125 8.359375 0.75 C 8.773438 0.46875 9.070312 0.0390625 9.25 -0.53125 C 9.445312 -1.164062 9.421875 -1.71875 9.171875 -2.1875 C 8.921875 -2.65625 8.382812 -3.015625 7.5625 -3.265625 L 4.03125 -4.34375 L 2.796875 -0.34375 Z M 6.609375 0.828125 "/></g></g></g><g fill="#f4f4f4" fill-opacity="1"><g transform="translate(141.710823, 234.036135)"><g><path d="M 14.234375 -1.03125 L 13.5 -0.28125 L 10.765625 -2.9375 L 4.0625 3.96875 L 3.125 3.0625 L 9.828125 -3.84375 L 7.0625 -6.515625 L 7.796875 -7.265625 Z M 14.234375 -1.03125 "/></g></g></g><g fill="#f4f4f4" fill-opacity="1"><g transform="translate(148.638496, 240.801214)"><g><path d="M 2.59375 0.5 L 8.015625 4.28125 L 7.40625 5.171875 L 0.890625 0.625 L 6.984375 -8.109375 L 13.46875 -3.59375 L 12.859375 -2.734375 L 7.46875 -6.484375 L 5.421875 -3.546875 L 10.40625 -0.078125 L 9.796875 0.796875 L 4.8125 -2.671875 Z M 2.59375 0.5 "/></g></g></g><g fill="#f4f4f4" fill-opacity="1"><g transform="translate(156.556543, 246.429181)"><g><path d="M 12.53125 -5.90625 L 13.71875 -5.359375 L 9.203125 4.296875 L 7.1875 3.359375 L 6.34375 -6.28125 C 6.320312 -6.851562 6.316406 -7.363281 6.328125 -7.8125 L 2.1875 1.03125 L 0.984375 0.46875 L 5.5 -9.1875 L 7.53125 -8.25 L 8.375 1.390625 C 8.394531 1.609375 8.40625 1.851562 8.40625 2.125 C 8.40625 2.394531 8.398438 2.664062 8.390625 2.9375 Z M 12.53125 -5.90625 "/></g></g></g><g fill="#f4f4f4" fill-opacity="1"><g transform="translate(166.498023, 251.103751)"><g><path d="M 11.234375 -8.09375 L 12.5 -7.765625 L 9.828125 2.546875 L 7.6875 2 L 5.109375 -7.328125 C 4.960938 -7.890625 4.859375 -8.394531 4.796875 -8.84375 L 2.34375 0.609375 L 1.0625 0.28125 L 3.734375 -10.03125 L 5.890625 -9.46875 L 8.484375 -0.15625 C 8.546875 0.0507812 8.597656 0.289062 8.640625 0.5625 C 8.691406 0.832031 8.738281 1.097656 8.78125 1.359375 Z M 11.234375 -8.09375 "/></g></g></g><g fill="#f4f4f4" fill-opacity="1"><g transform="translate(177.036921, 253.743258)"><g><path d="M 7.828125 -8.859375 L 5.578125 -9.078125 L 4.734375 -0.609375 L 6.984375 -0.390625 L 6.875 0.6875 L 1.078125 0.109375 L 1.1875 -0.96875 L 3.421875 -0.75 L 4.265625 -9.21875 L 2.03125 -9.4375 L 2.140625 -10.5 L 7.9375 -9.921875 Z M 7.828125 -8.859375 "/></g></g></g><g fill="#f4f4f4" fill-opacity="1"><g transform="translate(184.555297, 254.626189)"><g><path d="M 0.65625 -3.6875 L 1.953125 -3.75 C 1.984375 -3.207031 2.117188 -2.722656 2.359375 -2.296875 C 2.597656 -1.867188 2.96875 -1.546875 3.46875 -1.328125 C 3.96875 -1.109375 4.628906 -1.019531 5.453125 -1.0625 C 6.191406 -1.09375 6.757812 -1.195312 7.15625 -1.375 C 7.5625 -1.5625 7.84375 -1.804688 8 -2.109375 C 8.15625 -2.421875 8.226562 -2.78125 8.21875 -3.1875 C 8.1875 -3.75 8.003906 -4.171875 7.671875 -4.453125 C 7.347656 -4.734375 6.851562 -4.914062 6.1875 -5 L 3.65625 -5.265625 C 2.71875 -5.367188 2.019531 -5.640625 1.5625 -6.078125 C 1.101562 -6.515625 0.851562 -7.128906 0.8125 -7.921875 C 0.789062 -8.492188 0.910156 -9.015625 1.171875 -9.484375 C 1.441406 -9.960938 1.867188 -10.351562 2.453125 -10.65625 C 3.046875 -10.96875 3.804688 -11.144531 4.734375 -11.1875 C 6.117188 -11.25 7.175781 -10.972656 7.90625 -10.359375 C 8.632812 -9.753906 9.054688 -8.941406 9.171875 -7.921875 L 7.890625 -7.859375 C 7.785156 -8.585938 7.488281 -9.160156 7 -9.578125 C 6.507812 -9.992188 5.757812 -10.179688 4.75 -10.140625 C 3.8125 -10.097656 3.132812 -9.878906 2.71875 -9.484375 C 2.3125 -9.097656 2.125 -8.609375 2.15625 -8.015625 C 2.175781 -7.597656 2.3125 -7.242188 2.5625 -6.953125 C 2.8125 -6.660156 3.238281 -6.476562 3.84375 -6.40625 L 6.515625 -6.140625 C 7.460938 -6.035156 8.191406 -5.769531 8.703125 -5.34375 C 9.222656 -4.914062 9.503906 -4.273438 9.546875 -3.421875 C 9.597656 -2.398438 9.304688 -1.59375 8.671875 -1 C 8.035156 -0.414062 6.976562 -0.09375 5.5 -0.03125 C 4.34375 0.03125 3.414062 -0.0976562 2.71875 -0.421875 C 2.03125 -0.742188 1.519531 -1.191406 1.1875 -1.765625 C 0.863281 -2.347656 0.6875 -2.988281 0.65625 -3.6875 Z M 0.65625 -3.6875 "/></g></g></g><g fill="#f4f4f4" fill-opacity="1"><g transform="translate(197.627572, 253.80655)"><g><path d="M 6.046875 -1.453125 C 4.867188 -1.117188 3.832031 -1.070312 2.9375 -1.3125 C 2.050781 -1.5625 1.3125 -2.039062 0.71875 -2.75 C 0.125 -3.457031 -0.320312 -4.332031 -0.625 -5.375 C -0.914062 -6.394531 -0.992188 -7.363281 -0.859375 -8.28125 C -0.722656 -9.207031 -0.34375 -10.015625 0.28125 -10.703125 C 0.90625 -11.398438 1.804688 -11.914062 2.984375 -12.25 C 4.566406 -12.695312 5.84375 -12.664062 6.8125 -12.15625 C 7.78125 -11.644531 8.503906 -10.769531 8.984375 -9.53125 L 7.703125 -9.171875 C 7.316406 -10.140625 6.753906 -10.796875 6.015625 -11.140625 C 5.285156 -11.484375 4.367188 -11.492188 3.265625 -11.171875 C 1.992188 -10.804688 1.148438 -10.171875 0.734375 -9.265625 C 0.316406 -8.359375 0.3125 -7.191406 0.71875 -5.765625 C 1.125 -4.328125 1.738281 -3.332031 2.5625 -2.78125 C 3.382812 -2.226562 4.429688 -2.132812 5.703125 -2.5 C 6.859375 -2.820312 7.65625 -3.359375 8.09375 -4.109375 C 8.53125 -4.859375 8.628906 -5.765625 8.390625 -6.828125 L 9.703125 -7.203125 C 9.898438 -6.328125 9.910156 -5.507812 9.734375 -4.75 C 9.566406 -3.988281 9.179688 -3.328125 8.578125 -2.765625 C 7.984375 -2.203125 7.140625 -1.765625 6.046875 -1.453125 Z M 6.046875 -1.453125 "/></g></g></g><g fill="#f4f4f4" fill-opacity="1"><g transform="translate(208.892739, 250.456435)"><g><path d="M 1.71875 -2 L 6.765625 -4.40625 L 7.234375 -3.4375 L 0.984375 -0.46875 L -3.578125 -10.09375 L -2.375 -10.65625 Z M 1.71875 -2 "/></g></g></g><g fill="#f4f4f4" fill-opacity="1"><g transform="translate(216.136392, 247.158388)"><g><path d="M -1.25 -3.765625 L -5.09375 -9.421875 L -4 -10.15625 L -0.25 -4.625 C 0.207031 -3.957031 0.65625 -3.5 1.09375 -3.25 C 1.53125 -3 1.984375 -2.921875 2.453125 -3.015625 C 2.929688 -3.117188 3.445312 -3.359375 4 -3.734375 C 4.539062 -4.109375 4.945312 -4.492188 5.21875 -4.890625 C 5.488281 -5.296875 5.585938 -5.75 5.515625 -6.25 C 5.441406 -6.75 5.175781 -7.332031 4.71875 -8 L 0.96875 -13.53125 L 2.078125 -14.28125 L 5.921875 -8.625 C 6.648438 -7.550781 6.921875 -6.523438 6.734375 -5.546875 C 6.546875 -4.566406 5.835938 -3.660156 4.609375 -2.828125 C 3.378906 -1.992188 2.273438 -1.671875 1.296875 -1.859375 C 0.328125 -2.046875 -0.519531 -2.679688 -1.25 -3.765625 Z M -1.25 -3.765625 "/></g></g></g><g fill="#f4f4f4" fill-opacity="1"><g transform="translate(224.798208, 241.298105)"><g><path d="M 1.5 -9.09375 C 1.8125 -9.34375 2.15625 -9.503906 2.53125 -9.578125 C 2.90625 -9.660156 3.296875 -9.632812 3.703125 -9.5 C 4.109375 -9.375 4.503906 -9.109375 4.890625 -8.703125 C 5.503906 -8.078125 5.796875 -7.390625 5.765625 -6.640625 C 5.742188 -5.898438 5.332031 -5.144531 4.53125 -4.375 L 0.78125 -0.765625 L -6.609375 -8.4375 L -2.828125 -12.0625 C -2.285156 -12.59375 -1.769531 -12.925781 -1.28125 -13.0625 C -0.800781 -13.207031 -0.351562 -13.203125 0.0625 -13.046875 C 0.476562 -12.890625 0.859375 -12.632812 1.203125 -12.28125 C 1.734375 -11.726562 1.992188 -11.171875 1.984375 -10.609375 C 1.972656 -10.046875 1.8125 -9.539062 1.5 -9.09375 Z M -2.296875 -11.109375 L -4.90625 -8.59375 L -2.4375 -6.03125 L 0.046875 -8.4375 C 0.585938 -8.957031 0.875 -9.4375 0.90625 -9.875 C 0.9375 -10.320312 0.742188 -10.757812 0.328125 -11.1875 C -0.078125 -11.613281 -0.476562 -11.835938 -0.875 -11.859375 C -1.28125 -11.878906 -1.753906 -11.628906 -2.296875 -11.109375 Z M 3.6875 -5.0625 C 4.226562 -5.582031 4.476562 -6.070312 4.4375 -6.53125 C 4.40625 -7 4.191406 -7.4375 3.796875 -7.84375 C 3.359375 -8.289062 2.890625 -8.519531 2.390625 -8.53125 C 1.890625 -8.539062 1.351562 -8.269531 0.78125 -7.71875 L -1.734375 -5.296875 L 1 -2.46875 Z M 3.6875 -5.0625 "/></g></g></g></svg>